REM DIRINDEX 1\2\6,1\2\7,1\2\8,1\3\9,1\3\10,1\3\11,1\4\12,1\4\13,1\4\14,1\5\15,1\5\16,1\5\17,1\5\18
REM DIRNAME folder01,folder02,folder03,folder04,folder05,folder06,folder07,folder08,folder09,folder10,folder11,folder12,folder13,folder14,folder15,folder16,folder17,folder18
TITLE ""
FILE "" MP3
  TRACK 01 AUDIO
    TITLE "16:cjc019_6905"
    INDEX 01 00:00:00
  TRACK 02 AUDIO
    TITLE "0:"
    INDEX 01 00:00:74
  TRACK 03 AUDIO
    TITLE "18:cjc019_6906"
    INDEX 01 00:01:58
  TRACK 04 AUDIO
    TITLE "0:"
    INDEX 01 00:03:23
  TRACK 05 AUDIO
    TITLE "17:cjc019_6907"
    INDEX 01 00:03:74
  TRACK 06 AUDIO
    TITLE "0:"
    INDEX 01 00:05:09
  TRACK 07 AUDIO
    TITLE "16:cjc019_6908"
    INDEX 01 00:06:65
  TRACK 08 AUDIO
    TITLE "0:"
    INDEX 01 00:08:05
  TRACK 09 AUDIO
    TITLE "18:cjc019_6909"
    INDEX 01 00:08:58
  TRACK 10 AUDIO
    TITLE "0:"
    INDEX 01 00:10:12
  TRACK 11 AUDIO
    TITLE "17:cjc019_6910"
    INDEX 01 00:10:57
  TRACK 12 AUDIO
    TITLE "0:"
    INDEX 01 00:11:72
  TRACK 13 AUDIO
    TITLE "16:cjc019_6911"
    INDEX 01 00:13:53
  TRACK 14 AUDIO
    TITLE "0:"
    INDEX 01 00:14:74
  TRACK 15 AUDIO
    TITLE "18:cjc019_6912"
    INDEX 01 00:15:52
  TRACK 16 AUDIO
    TITLE "0:"
    INDEX 01 00:18:62
  TRACK 17 AUDIO
    TITLE "17:cjc019_6913"
    INDEX 01 00:19:40
  TRACK 18 AUDIO
    TITLE "0:"
    INDEX 01 00:20:63
  TRACK 19 AUDIO
    TITLE "16:cjc019_6914"
    INDEX 01 00:22:46
  TRACK 20 AUDIO
    TITLE "0:"
    INDEX 01 00:24:02
  TRACK 21 AUDIO
    TITLE "18:cjc019_6915"
    INDEX 01 00:24:53
  TRACK 22 AUDIO
    TITLE "0:"
    INDEX 01 00:27:65
  TRACK 23 AUDIO
    TITLE "17:cjc019_6916"
    INDEX 01 00:28:47
  TRACK 24 AUDIO
    TITLE "0:"
    INDEX 01 00:29:74
  TRACK 25 AUDIO
    TITLE "16:cjc019_6917"
    INDEX 01 00:31:57
  TRACK 26 AUDIO
    TITLE "0:"
    INDEX 01 00:33:09
  TRACK 27 AUDIO
    TITLE "18:cjc019_6918"
    INDEX 01 00:33:60
  TRACK 28 AUDIO
    TITLE "0:"
    INDEX 01 00:35:23
  TRACK 29 AUDIO
    TITLE "17:cjc019_6919"
    INDEX 01 00:35:74
  TRACK 30 AUDIO
    TITLE "0:"
    INDEX 01 00:37:30
  TRACK 31 AUDIO
    TITLE "16:cjc019_6920"
    INDEX 01 00:39:13
  TRACK 32 AUDIO
    TITLE "0:"
    INDEX 01 00:40:38
  TRACK 33 AUDIO
    TITLE "18:cjc019_6921"
    INDEX 01 00:41:20
  TRACK 34 AUDIO
    TITLE "0:"
    INDEX 01 00:42:74
  TRACK 35 AUDIO
    TITLE "17:cjc019_6922"
    INDEX 01 00:43:50
  TRACK 36 AUDIO
    TITLE "0:"
    INDEX 01 00:45:02
  TRACK 37 AUDIO
    TITLE "16:cjc019_6923"
    INDEX 01 00:46:60
  TRACK 38 AUDIO
    TITLE "0:"
    INDEX 01 00:48:02
  TRACK 39 AUDIO
    TITLE "18:cjc019_6924"
    INDEX 01 00:48:61
  TRACK 40 AUDIO
    TITLE "0:"
    INDEX 01 00:51:65
  TRACK 41 AUDIO
    TITLE "17:cjc019_6925"
    INDEX 01 00:52:43
  TRACK 42 AUDIO
    TITLE "0:"
    INDEX 01 00:53:66
  TRACK 43 AUDIO
    TITLE "16:cjc019_6926"
    INDEX 01 00:55:50
  TRACK 44 AUDIO
    TITLE "0:"
    INDEX 01 00:57:15
  TRACK 45 AUDIO
    TITLE "18:cjc019_6927"
    INDEX 01 00:57:68
  TRACK 46 AUDIO
    TITLE "0:"
    INDEX 01 00:59:32
  TRACK 47 AUDIO
    TITLE "17:cjc019_6928"
    INDEX 01 01:00:12
  TRACK 48 AUDIO
    TITLE "0:"
    INDEX 01 01:01:56
  TRACK 49 AUDIO
    TITLE "16:cjc019_6929"
    INDEX 01 01:03:39
  TRACK 50 AUDIO
    TITLE "0:"
    INDEX 01 01:04:68
  TRACK 51 AUDIO
    TITLE "18:cjc019_6930"
    INDEX 01 01:05:44
  TRACK 52 AUDIO
    TITLE "0:"
    INDEX 01 01:08:54
  TRACK 53 AUDIO
    TITLE "17:cjc019_6931"
    INDEX 01 01:09:30
  TRACK 54 AUDIO
    TITLE "0:"
    INDEX 01 01:10:65
  TRACK 55 AUDIO
    TITLE "16:cjc019_6932"
    INDEX 01 01:12:42
  TRACK 56 AUDIO
    TITLE "0:"
    INDEX 01 01:13:59
  TRACK 57 AUDIO
    TITLE "18:cjc019_6933"
    INDEX 01 01:14:41
  TRACK 58 AUDIO
    TITLE "0:"
    INDEX 01 01:17:32
  TRACK 59 AUDIO
    TITLE "17:cjc019_6934"
    INDEX 01 01:18:07
  TRACK 60 AUDIO
    TITLE "0:"
    INDEX 01 01:19:27
  TRACK 61 AUDIO
    TITLE "16:cjc019_6935"
    INDEX 01 01:21:10
  TRACK 62 AUDIO
    TITLE "0:"
    INDEX 01 01:22:23
  TRACK 63 AUDIO
    TITLE "18:cjc019_6936"
    INDEX 01 01:23:09
  TRACK 64 AUDIO
    TITLE "0:"
    INDEX 01 01:24:45
  TRACK 65 AUDIO
    TITLE "17:cjc019_6937"
    INDEX 01 01:25:27
  TRACK 66 AUDIO
    TITLE "0:"
    INDEX 01 01:26:50
  TRACK 67 AUDIO
    TITLE "16:cjc019_6938"
    INDEX 01 01:28:33
  TRACK 68 AUDIO
    TITLE "0:"
    INDEX 01 01:29:68
  TRACK 69 AUDIO
    TITLE "18:cjc019_6939"
    INDEX 01 01:30:50
  TRACK 70 AUDIO
    TITLE "0:"
    INDEX 01 01:33:33
  TRACK 71 AUDIO
    TITLE "17:cjc019_6940"
    INDEX 01 01:34:06
  TRACK 72 AUDIO
    TITLE "0:"
    INDEX 01 01:35:39
  TRACK 73 AUDIO
    TITLE "16:cjc019_6941"
    INDEX 01 01:37:21
  TRACK 74 AUDIO
    TITLE "0:"
    INDEX 01 01:38:26
  TRACK 75 AUDIO
    TITLE "18:cjc019_6942"
    INDEX 01 01:39:10
  TRACK 76 AUDIO
    TITLE "0:"
    INDEX 01 01:45:63
  TRACK 77 AUDIO
    TITLE "17:cjc019_6943"
    INDEX 01 01:46:45
  TRACK 78 AUDIO
    TITLE "0:"
    INDEX 01 01:47:50
  TRACK 79 AUDIO
    TITLE "16:cjc019_6944"
    INDEX 01 01:49:39
  TRACK 80 AUDIO
    TITLE "0:"
    INDEX 01 01:50:62
  TRACK 81 AUDIO
    TITLE "18:cjc019_6945"
    INDEX 01 01:51:46
  TRACK 82 AUDIO
    TITLE "0:"
    INDEX 01 01:56:24
  TRACK 83 AUDIO
    TITLE "17:cjc019_6946"
    INDEX 01 01:57:02
  TRACK 84 AUDIO
    TITLE "0:"
    INDEX 01 01:58:23
  TRACK 85 AUDIO
    TITLE "16:cjc019_6947"
    INDEX 01 02:00:08
  TRACK 86 AUDIO
    TITLE "0:"
    INDEX 01 02:01:03
  TRACK 87 AUDIO
    TITLE "18:cjc019_6948"
    INDEX 01 02:01:58
  TRACK 88 AUDIO
    TITLE "0:"
    INDEX 01 02:04:53
  TRACK 89 AUDIO
    TITLE "17:cjc019_6949"
    INDEX 01 02:05:34
  TRACK 90 AUDIO
    TITLE "0:"
    INDEX 01 02:06:32
  TRACK 91 AUDIO
    TITLE "16:cjc019_6950"
    INDEX 01 02:08:19
  TRACK 92 AUDIO
    TITLE "0:"
    INDEX 01 02:09:26
  TRACK 93 AUDIO
    TITLE "18:cjc019_6951"
    INDEX 01 02:10:08
  TRACK 94 AUDIO
    TITLE "0:"
    INDEX 01 02:11:68
  TRACK 95 AUDIO
    TITLE "17:cjc019_6952"
    INDEX 01 02:12:42
  TRACK 96 AUDIO
    TITLE "0:"
    INDEX 01 02:13:50
  TRACK 97 AUDIO
    TITLE "16:cjc019_6953"
    INDEX 01 02:15:41
  TRACK 98 AUDIO
    TITLE "0:"
    INDEX 01 02:16:72
  TRACK 99 AUDIO
    TITLE "18:cjc019_6954"
    INDEX 01 02:17:59
  TRACK 100 AUDIO
    TITLE "0:"
    INDEX 01 02:21:30
  TRACK 101 AUDIO
    TITLE "17:cjc019_6955"
    INDEX 01 02:21:73
  TRACK 102 AUDIO
    TITLE "0:"
    INDEX 01 02:23:32
  TRACK 103 AUDIO
    TITLE "16:cjc019_6956"
    INDEX 01 02:25:12
  TRACK 104 AUDIO
    TITLE "0:"
    INDEX 01 02:26:33
  TRACK 105 AUDIO
    TITLE "18:cjc019_6957"
    INDEX 01 02:27:09
  TRACK 106 AUDIO
    TITLE "0:"
    INDEX 01 02:28:20
  TRACK 107 AUDIO
    TITLE "17:cjc019_6958"
    INDEX 01 02:29:02
  TRACK 108 AUDIO
    TITLE "0:"
    INDEX 01 02:30:23
